# xmcd
#
# Track frame offsets:
#	150
#	15430
#	28720
#	41725
#	54437
#	71437
#	89080
#	100682
#	118067
#	128580
#	143642
#	153865
#	163417
#	175322
#	195752
#	207977
#	221087
#	235170
#	252100
#	265042
#
# Disc length: 3824 seconds
#
# Revision: 1
# Processed by: cddbd v1.5.1PL2 Copyright (c) Steve Scherf et al.
# Submitted via: audiograbber 1.83.01
#
DISCID=100eee14
DTITLE=Faithless Street  - Whiskey Town
DYEAR=1900
DGENRE=
TTITLE0=Midway Park
TTITLE1=Drank Like A River
TTITLE2=Too Drunk To Dream
TTITLE3=Tennessee Square
TTITLE4=What May Seem Like Love
TTITLE5=Faithless Street
TTITLE6=Mining Town
TTITLE7=If He Can't Have You
TTITLE8=Black Arrow, Bleeding Heart
TTITLE9=Matrimony
TTITLE10=Excuse Me While I Break My Own Heart Tonight
TTITLE11=Desparate Ain't Lonely
TTITLE12=Hard Luck Story
TTITLE13=Top Dollar
TTITLE14=Lo-Fi Tennessee Mountain Angel
TTITLE15=Revenge
TTITLE16=Hrer's To The Rest of The World
TTITLE17=16 Days
TTITLE18=Yesterday's News
TTITLE19=Factory Girl
EXTD=
EXTT0=
EXTT1=
EXTT2=
EXTT3=
EXTT4=
EXTT5=
EXTT6=
EXTT7=
EXTT8=
EXTT9=
EXTT10=
EXTT11=
EXTT12=
EXTT13=
EXTT14=
EXTT15=
EXTT16=
EXTT17=
EXTT18=
EXTT19=
PLAYORDER=
